<mxfile host="65bd71144e">
    <diagram id="STNWzKey5gT1pbEaQYfi" name="Page-1">
        <mxGraphModel dx="899" dy="644" grid="1" gridSize="10" guides="1" tooltips="1" connect="1" arrows="1" fold="1" page="1" pageScale="1" pageWidth="827" pageHeight="1169" math="0" shadow="0">
            <root>
                <mxCell id="0"/>
                <mxCell id="1" parent="0"/>
                <mxCell id="10" value="Pick a number from 1 to 6" style="swimlane;startSize=60;" parent="1" vertex="1">
                    <mxGeometry x="70" y="90" width="490" height="380" as="geometry"/>
                </mxCell>
                <mxCell id="11" value="" style="line;strokeWidth=4;html=1;perimeter=backbonePerimeter;points=[];outlineConnect=0;" parent="10" vertex="1">
                    <mxGeometry x="30" y="80" width="250" height="120" as="geometry"/>
                </mxCell>
                <mxCell id="12" value="Slide Here" style="text;html=1;strokeColor=none;fillColor=none;align=center;verticalAlign=middle;whiteSpace=wrap;rounded=0;" parent="10" vertex="1">
                    <mxGeometry x="30" y="110" width="60" height="30" as="geometry"/>
                </mxCell>
                <mxCell id="13" value="You got it right!" style="text;html=1;strokeColor=none;fillColor=none;align=center;verticalAlign=middle;whiteSpace=wrap;rounded=0;" parent="10" vertex="1">
                    <mxGeometry x="10" y="140" width="130" height="30" as="geometry"/>
                </mxCell>
                <mxCell id="14" value="Actor" style="shape=umlActor;verticalLabelPosition=bottom;verticalAlign=top;html=1;outlineConnect=0;" vertex="1" parent="10">
                    <mxGeometry x="370" y="90" width="70" height="80" as="geometry"/>
                </mxCell>
            </root>
        </mxGraphModel>
    </diagram>
</mxfile>